<svg xmlns="http://www.w3.org/2000/svg" xmlns:xlink="http://www.w3.org/1999/xlink" width="500" zoomAndPan="magnify" viewBox="0 0 375 374.999991" height="500" preserveAspectRatio="xMidYMid meet" version="1.2"><g id="2aa18ac911"><rect x="0" width="375" y="0" height="374.999991" style="fill:#ffffff;fill-opacity:1;stroke:none;"/><rect x="0" width="375" y="0" height="374.999991" style="fill:#000000;fill-opacity:1;stroke:none;"/><path style="fill:none;stroke-width:3;stroke-linecap:round;stroke-linejoin:miter;stroke:#ffffff;stroke-opacity:1;stroke-miterlimit:4;" d="M 1.500009 1.499783 L 197.973981 1.499783 " transform="matrix(0.000000001309,0.75,-0.75,0.000000001309,114.644368,112.699212)"/><path style="fill:none;stroke-width:3;stroke-linecap:round;stroke-linejoin:miter;stroke:#ffffff;stroke-opacity:1;stroke-miterlimit:4;" d="M 1.500009 1.498091 L 197.973981 1.498092 " transform="matrix(0.000000001309,0.75,-0.75,0.000000001309,121.369662,112.699212)"/><path style="fill:none;stroke-width:3;stroke-linecap:round;stroke-linejoin:miter;stroke:#ffffff;stroke-opacity:1;stroke-miterlimit:4;" d="M 1.499793 1.501173 L 18.202919 1.501173 " transform="matrix(0,0.75,-0.75,0,134.817286,119.023593)"/><path style="fill:none;stroke-width:3;stroke-linecap:round;stroke-linejoin:miter;stroke:#ffffff;stroke-opacity:1;stroke-miterlimit:4;" d="M 1.497922 1.50036 L 18.659382 1.50036 " transform="matrix(0.000000001309,0.75,-0.75,0.000000001309,141.547145,126.235933)"/><path style="fill:none;stroke-width:3;stroke-linecap:round;stroke-linejoin:miter;stroke:#ffffff;stroke-opacity:1;stroke-miterlimit:4;" d="M 1.502152 1.498678 L 18.658403 1.498678 " transform="matrix(0.000000001309,0.75,-0.75,0.000000001309,148.272446,133.795261)"/><path style="fill:none;stroke-width:3;stroke-linecap:round;stroke-linejoin:miter;stroke:#ffffff;stroke-opacity:1;stroke-miterlimit:4;" d="M 1.501177 1.502205 L 18.657428 1.502205 " transform="matrix(0.000000001309,0.75,-0.75,0.000000001309,154.997747,141.354586)"/><path style="fill:none;stroke-width:3;stroke-linecap:round;stroke-linejoin:miter;stroke:#ffffff;stroke-opacity:1;stroke-miterlimit:4;" d="M 1.500202 1.500545 L 18.656453 1.500545 " transform="matrix(0,0.75,-0.75,0,161.723065,148.913911)"/><path style="fill:none;stroke-width:3;stroke-linecap:round;stroke-linejoin:miter;stroke:#ffffff;stroke-opacity:1;stroke-miterlimit:4;" d="M 1.499227 1.498867 L 18.660686 1.498867 " transform="matrix(0.000000001309,0.75,-0.75,0.000000001309,168.448369,156.473236)"/><path style="fill:none;stroke-width:3;stroke-linecap:round;stroke-linejoin:miter;stroke:#ffffff;stroke-opacity:1;stroke-miterlimit:4;" d="M 1.498249 1.502374 L 18.659708 1.502374 " transform="matrix(0.000000001309,0.75,-0.75,0.000000001309,175.173655,164.032564)"/><path style="fill:none;stroke-width:3;stroke-linecap:round;stroke-linejoin:miter;stroke:#ffffff;stroke-opacity:1;stroke-miterlimit:4;" d="M 1.502482 1.500692 L 18.658733 1.500692 " transform="matrix(0.000000001309,0.75,-0.75,0.000000001309,181.898957,171.591889)"/><path style="fill:none;stroke-width:3;stroke-linecap:round;stroke-linejoin:miter;stroke:#ffffff;stroke-opacity:1;stroke-miterlimit:4;" d="M 1.501507 1.499014 L 18.657758 1.499014 " transform="matrix(0.000000001309,0.75,-0.75,0.000000001309,188.62426,179.151214)"/><path style="fill:none;stroke-width:3;stroke-linecap:round;stroke-linejoin:miter;stroke:#ffffff;stroke-opacity:1;stroke-miterlimit:4;" d="M 1.500512 1.50254 L 18.656763 1.50254 " transform="matrix(0,0.75,-0.75,0,195.349561,186.710553)"/><path style="fill:none;stroke-width:3;stroke-linecap:round;stroke-linejoin:miter;stroke:#ffffff;stroke-opacity:1;stroke-miterlimit:4;" d="M 1.499534 1.500862 L 18.655785 1.500862 " transform="matrix(0,0.75,-0.75,0,202.074865,194.269881)"/><path style="fill:none;stroke-width:3;stroke-linecap:round;stroke-linejoin:miter;stroke:#ffffff;stroke-opacity:1;stroke-miterlimit:4;" d="M 1.498559 1.49918 L 18.660018 1.49918 " transform="matrix(0,0.75,-0.75,0,208.800166,201.829206)"/><path style="fill:none;stroke-width:3;stroke-linecap:round;stroke-linejoin:miter;stroke:#ffffff;stroke-opacity:1;stroke-miterlimit:4;" d="M 1.497584 1.497501 L 18.659043 1.497501 " transform="matrix(0.000000001309,0.75,-0.75,0.000000001309,215.52547,209.388531)"/><path style="fill:none;stroke-width:3;stroke-linecap:round;stroke-linejoin:miter;stroke:#ffffff;stroke-opacity:1;stroke-miterlimit:4;" d="M 1.501817 1.501009 L 18.658068 1.501009 " transform="matrix(0.000000001309,0.75,-0.75,0.000000001309,222.250756,216.947856)"/><path style="fill:none;stroke-width:3;stroke-linecap:round;stroke-linejoin:miter;stroke:#ffffff;stroke-opacity:1;stroke-miterlimit:4;" d="M 1.500839 1.49933 L 18.65709 1.49933 " transform="matrix(0,0.75,-0.75,0,228.97606,224.507184)"/><path style="fill:none;stroke-width:3;stroke-linecap:round;stroke-linejoin:miter;stroke:#ffffff;stroke-opacity:1;stroke-miterlimit:4;" d="M 1.499863 1.497648 L 18.656115 1.497648 " transform="matrix(0,0.75,-0.75,0,235.701361,232.066509)"/><path style="fill:none;stroke-width:3;stroke-linecap:round;stroke-linejoin:miter;stroke:#ffffff;stroke-opacity:1;stroke-miterlimit:4;" d="M 1.498888 1.501178 L 18.660348 1.501178 " transform="matrix(0.000000001309,0.75,-0.75,0.000000001309,242.426665,239.625834)"/><path style="fill:none;stroke-width:3;stroke-linecap:round;stroke-linejoin:miter;stroke:#ffffff;stroke-opacity:1;stroke-miterlimit:4;" d="M 1.497913 1.499515 L 18.659373 1.499515 " transform="matrix(0.000000001309,0.75,-0.75,0.000000001309,249.15198,247.185159)"/><path style="fill:none;stroke-width:3;stroke-linecap:round;stroke-linejoin:miter;stroke:#ffffff;stroke-opacity:1;stroke-miterlimit:4;" d="M 1.500009 1.500895 L 197.973981 1.500895 " transform="matrix(0.000000001309,0.75,-0.75,0.000000001309,255.875671,112.699212)"/><path style="fill:none;stroke-width:3;stroke-linecap:round;stroke-linejoin:miter;stroke:#ffffff;stroke-opacity:1;stroke-miterlimit:4;" d="M 1.500009 1.499216 L 197.973981 1.499216 " transform="matrix(0,0.75,-0.75,0,262.600974,112.699212)"/><path style="fill:none;stroke-width:3;stroke-linecap:round;stroke-linejoin:miter;stroke:#ffffff;stroke-opacity:1;stroke-miterlimit:4;" d="M 1.502128 1.498531 L 18.658379 1.498531 " transform="matrix(0.000000001309,0.75,-0.75,0.000000001309,128.096554,112.697623)"/></g></svg>