<svg xmlns="http://www.w3.org/2000/svg" xmlns:xlink="http://www.w3.org/1999/xlink" width="500" zoomAndPan="magnify" viewBox="0 0 375 374.999991" height="500" preserveAspectRatio="xMidYMid meet" version="1.2"><g id="44587147d0"><rect x="0" width="375" y="0" height="374.999991" style="fill:#ffffff;fill-opacity:1;stroke:none;"/><rect x="0" width="375" y="0" height="374.999991" style="fill:#000000;fill-opacity:1;stroke:none;"/><path style="fill:none;stroke-width:3;stroke-linecap:round;stroke-linejoin:miter;stroke:#ffffff;stroke-opacity:1;stroke-miterlimit:4;" d="M 1.501933 1.500324 L 126.210275 1.500325 " transform="matrix(0.000000001309,0.75,-0.75,0.000000001309,158.613524,136.81105)"/><path style="fill:none;stroke-width:3;stroke-linecap:round;stroke-linejoin:miter;stroke:#ffffff;stroke-opacity:1;stroke-miterlimit:4;" d="M 1.501933 1.50123 L 126.210275 1.50123 " transform="matrix(0.000000001309,0.75,-0.75,0.000000001309,162.286079,136.81105)"/><path style="fill:none;stroke-width:3;stroke-linecap:round;stroke-linejoin:miter;stroke:#ffffff;stroke-opacity:1;stroke-miterlimit:4;" d="M 1.501933 1.500325 L 126.210275 1.500325 " transform="matrix(0.000000001309,0.75,-0.75,0.000000001309,154.863525,136.81105)"/><path style="fill:none;stroke-width:3;stroke-linecap:round;stroke-linejoin:miter;stroke:#ffffff;stroke-opacity:1;stroke-miterlimit:4;" d="M 1.497856 1.498732 L 125.586406 1.498732 " transform="matrix(0,0.75,-0.75,0,218.631861,137.278952)"/><path style="fill:none;stroke-width:3;stroke-linecap:round;stroke-linejoin:miter;stroke:#ffffff;stroke-opacity:1;stroke-miterlimit:4;" d="M 1.497856 1.498732 L 125.586406 1.498732 " transform="matrix(0,0.75,-0.75,0,222.381861,137.278952)"/><path style="fill:none;stroke-width:3;stroke-linecap:round;stroke-linejoin:miter;stroke:#ffffff;stroke-opacity:1;stroke-miterlimit:4;" d="M 1.497856 1.498731 L 125.586406 1.498731 " transform="matrix(0.000000001309,0.75,-0.75,0.000000001309,226.131861,137.278952)"/><path style="fill:none;stroke-width:3;stroke-linecap:round;stroke-linejoin:miter;stroke:#ffffff;stroke-opacity:1;stroke-miterlimit:4;" d="M 1.498324 1.49938 L 133.675327 1.501921 " transform="matrix(0.311356,0.682318,-0.682318,0.311356,169.454979,138.335045)"/><path style="fill:none;stroke-width:3;stroke-linecap:round;stroke-linejoin:miter;stroke:#ffffff;stroke-opacity:1;stroke-miterlimit:4;" d="M 1.499067 1.501609 L 133.678232 1.499412 " transform="matrix(0.311356,0.682318,-0.682318,0.311356,172.796112,136.810407)"/><path style="fill:none;stroke-width:3;stroke-linecap:round;stroke-linejoin:miter;stroke:#ffffff;stroke-opacity:1;stroke-miterlimit:4;" d="M 1.501323 1.498643 L 133.673588 1.499023 " transform="matrix(0.311356,0.682318,-0.682318,0.311356,166.043386,139.891822)"/></g></svg>