<svg xmlns="http://www.w3.org/2000/svg" xmlns:xlink="http://www.w3.org/1999/xlink" width="500" zoomAndPan="magnify" viewBox="0 0 375 374.999991" height="500" preserveAspectRatio="xMidYMid meet" version="1.2"><g id="95f1513467"><rect x="0" width="375" y="0" height="374.999991" style="fill:#ffffff;fill-opacity:1;stroke:none;"/><rect x="0" width="375" y="0" height="374.999991" style="fill:#000000;fill-opacity:1;stroke:none;"/><path style="fill:none;stroke-width:3;stroke-linecap:round;stroke-linejoin:miter;stroke:#ffffff;stroke-opacity:1;stroke-miterlimit:4;" d="M 1.497406 1.501009 L 133.674498 1.501009 " transform="matrix(0.000000001309,0.75,-0.75,0.000000001309,158.614038,136.810539)"/><path style="fill:none;stroke-width:3;stroke-linecap:round;stroke-linejoin:miter;stroke:#ffffff;stroke-opacity:1;stroke-miterlimit:4;" d="M 1.497406 1.501912 L 133.674498 1.501912 " transform="matrix(0.000000001309,0.75,-0.75,0.000000001309,162.28659,136.810539)"/><path style="fill:none;stroke-width:3;stroke-linecap:round;stroke-linejoin:miter;stroke:#ffffff;stroke-opacity:1;stroke-miterlimit:4;" d="M 1.500273 1.502473 L 17.557566 1.502473 " transform="matrix(0,0.75,-0.75,0,169.783105,142.929483)"/><path style="fill:none;stroke-width:3;stroke-linecap:round;stroke-linejoin:miter;stroke:#ffffff;stroke-opacity:1;stroke-miterlimit:4;" d="M 1.499016 1.497777 L 17.999018 1.497777 " transform="matrix(0.000000001309,0.75,-0.75,0.000000001309,173.537396,149.906988)"/><path style="fill:none;stroke-width:3;stroke-linecap:round;stroke-linejoin:miter;stroke:#ffffff;stroke-opacity:1;stroke-miterlimit:4;" d="M 1.498294 1.497777 L 18.003503 1.497777 " transform="matrix(0.000000001309,0.75,-0.75,0.000000001309,177.287395,157.22003)"/><path style="fill:none;stroke-width:3;stroke-linecap:round;stroke-linejoin:miter;stroke:#ffffff;stroke-opacity:1;stroke-miterlimit:4;" d="M 1.497533 1.497777 L 18.002742 1.497777 " transform="matrix(0.000000001309,0.75,-0.75,0.000000001309,181.037395,164.5331)"/><path style="fill:none;stroke-width:3;stroke-linecap:round;stroke-linejoin:miter;stroke:#ffffff;stroke-opacity:1;stroke-miterlimit:4;" d="M 1.501999 1.497776 L 18.002001 1.497776 " transform="matrix(0,0.75,-0.75,0,184.787395,171.846157)"/><path style="fill:none;stroke-width:3;stroke-linecap:round;stroke-linejoin:miter;stroke:#ffffff;stroke-opacity:1;stroke-miterlimit:4;" d="M 1.501258 1.497776 L 18.001259 1.497776 " transform="matrix(0.000000001309,0.75,-0.75,0.000000001309,188.537395,179.159213)"/><path style="fill:none;stroke-width:3;stroke-linecap:round;stroke-linejoin:miter;stroke:#ffffff;stroke-opacity:1;stroke-miterlimit:4;" d="M 1.500519 1.497776 L 18.00052 1.497776 " transform="matrix(0.000000001309,0.75,-0.75,0.000000001309,192.287394,186.472267)"/><path style="fill:none;stroke-width:3;stroke-linecap:round;stroke-linejoin:miter;stroke:#ffffff;stroke-opacity:1;stroke-miterlimit:4;" d="M 1.499797 1.501623 L 17.999798 1.501623 " transform="matrix(0,0.75,-0.75,0,196.13403,193.785309)"/><path style="fill:none;stroke-width:3;stroke-linecap:round;stroke-linejoin:miter;stroke:#ffffff;stroke-opacity:1;stroke-miterlimit:4;" d="M 1.499036 1.501623 L 17.999037 1.501623 " transform="matrix(0.000000001309,0.75,-0.75,0.000000001309,199.88403,201.09838)"/><path style="fill:none;stroke-width:3;stroke-linecap:round;stroke-linejoin:miter;stroke:#ffffff;stroke-opacity:1;stroke-miterlimit:4;" d="M 1.498294 1.501623 L 18.003503 1.501623 " transform="matrix(0,0.75,-0.75,0,203.63403,208.411436)"/><path style="fill:none;stroke-width:3;stroke-linecap:round;stroke-linejoin:miter;stroke:#ffffff;stroke-opacity:1;stroke-miterlimit:4;" d="M 1.497571 1.501622 L 18.002781 1.501622 " transform="matrix(0,0.75,-0.75,0,207.384029,215.724478)"/><path style="fill:none;stroke-width:3;stroke-linecap:round;stroke-linejoin:miter;stroke:#ffffff;stroke-opacity:1;stroke-miterlimit:4;" d="M 1.501804 1.501389 L 18.70493 1.501389 " transform="matrix(0,0.75,-0.75,0,211.133854,223.037709)"/><path style="fill:none;stroke-width:3;stroke-linecap:round;stroke-linejoin:miter;stroke:#ffffff;stroke-opacity:1;stroke-miterlimit:4;" d="M 1.497406 1.500547 L 133.674498 1.500547 " transform="matrix(0,0.75,-0.75,0,214.883222,136.810539)"/><path style="fill:none;stroke-width:3;stroke-linecap:round;stroke-linejoin:miter;stroke:#ffffff;stroke-opacity:1;stroke-miterlimit:4;" d="M 1.497406 1.500546 L 133.674498 1.500546 " transform="matrix(0,0.75,-0.75,0,218.633222,136.810539)"/><path style="fill:none;stroke-width:3;stroke-linecap:round;stroke-linejoin:miter;stroke:#ffffff;stroke-opacity:1;stroke-miterlimit:4;" d="M 1.498482 1.497778 L 18.003691 1.497778 " transform="matrix(0.000000001309,0.75,-0.75,0.000000001309,166.037396,136.809733)"/><path style="fill:none;stroke-width:3;stroke-linecap:round;stroke-linejoin:miter;stroke:#ffffff;stroke-opacity:1;stroke-miterlimit:4;" d="M 1.497406 1.50101 L 133.674498 1.50101 " transform="matrix(0.000000001309,0.75,-0.75,0.000000001309,154.864038,136.810539)"/><path style="fill:none;stroke-width:3;stroke-linecap:round;stroke-linejoin:miter;stroke:#ffffff;stroke-opacity:1;stroke-miterlimit:4;" d="M 1.497406 1.500527 L 133.674498 1.500527 " transform="matrix(0.000000001309,0.75,-0.75,0.000000001309,222.383207,136.810539)"/></g></svg>