<svg xmlns="http://www.w3.org/2000/svg" xmlns:xlink="http://www.w3.org/1999/xlink" width="500" zoomAndPan="magnify" viewBox="0 0 375 374.999991" height="500" preserveAspectRatio="xMidYMid meet" version="1.2"><g id="b757cbf6f1"><rect x="0" width="375" y="0" height="374.999991" style="fill:#ffffff;fill-opacity:1;stroke:none;"/><rect x="0" width="375" y="0" height="374.999991" style="fill:#000000;fill-opacity:1;stroke:none;"/><path style="fill:none;stroke-width:3;stroke-linecap:round;stroke-linejoin:miter;stroke:#ffffff;stroke-opacity:1;stroke-miterlimit:4;" d="M 1.500013 1.498411 L 116.510437 1.498411 " transform="matrix(0.000000001309,0.75,-0.75,0.000000001309,158.612089,143.249991)"/><path style="fill:none;stroke-width:3;stroke-linecap:round;stroke-linejoin:miter;stroke:#ffffff;stroke-opacity:1;stroke-miterlimit:4;" d="M 1.500013 1.499316 L 116.510437 1.499317 " transform="matrix(0.000000001309,0.75,-0.75,0.000000001309,162.284643,143.249991)"/><path style="fill:none;stroke-width:3;stroke-linecap:round;stroke-linejoin:miter;stroke:#ffffff;stroke-opacity:1;stroke-miterlimit:4;" d="M 1.501204 1.49992 L 15.225163 1.49992 " transform="matrix(0,0.75,-0.75,0,169.785097,148.616285)"/><path style="fill:none;stroke-width:3;stroke-linecap:round;stroke-linejoin:miter;stroke:#ffffff;stroke-opacity:1;stroke-miterlimit:4;" d="M 1.499999 1.501443 L 15.614583 1.501443 " transform="matrix(0.000000001309,0.75,-0.75,0.000000001309,173.536239,154.742188)"/><path style="fill:none;stroke-width:3;stroke-linecap:round;stroke-linejoin:miter;stroke:#ffffff;stroke-opacity:1;stroke-miterlimit:4;" d="M 1.500322 1.501443 L 15.614906 1.501443 " transform="matrix(0.000000001309,0.75,-0.75,0.000000001309,177.286238,161.159915)"/><path style="fill:none;stroke-width:3;stroke-linecap:round;stroke-linejoin:miter;stroke:#ffffff;stroke-opacity:1;stroke-miterlimit:4;" d="M 1.500619 1.501443 L 15.615203 1.501443 " transform="matrix(0.000000001309,0.75,-0.75,0.000000001309,181.036238,167.577661)"/><path style="fill:none;stroke-width:3;stroke-linecap:round;stroke-linejoin:miter;stroke:#ffffff;stroke-opacity:1;stroke-miterlimit:4;" d="M 1.500941 1.501442 L 15.615526 1.501442 " transform="matrix(0,0.75,-0.75,0,184.786238,173.995388)"/><path style="fill:none;stroke-width:3;stroke-linecap:round;stroke-linejoin:miter;stroke:#ffffff;stroke-opacity:1;stroke-miterlimit:4;" d="M 1.501238 1.501442 L 15.615823 1.501442 " transform="matrix(0.000000001309,0.75,-0.75,0.000000001309,188.536238,180.413134)"/><path style="fill:none;stroke-width:3;stroke-linecap:round;stroke-linejoin:miter;stroke:#ffffff;stroke-opacity:1;stroke-miterlimit:4;" d="M 1.501539 1.501442 L 15.616123 1.501442 " transform="matrix(0.000000001309,0.75,-0.75,0.000000001309,192.286237,186.830877)"/><path style="fill:none;stroke-width:3;stroke-linecap:round;stroke-linejoin:miter;stroke:#ffffff;stroke-opacity:1;stroke-miterlimit:4;" d="M 1.501858 1.500081 L 15.616442 1.500081 " transform="matrix(0.000000001309,0.75,-0.75,0.000000001309,196.132873,193.248607)"/><path style="fill:none;stroke-width:3;stroke-linecap:round;stroke-linejoin:miter;stroke:#ffffff;stroke-opacity:1;stroke-miterlimit:4;" d="M 1.502178 1.500081 L 15.611553 1.500081 " transform="matrix(0.000000001309,0.75,-0.75,0.000000001309,199.882873,199.666336)"/><path style="fill:none;stroke-width:3;stroke-linecap:round;stroke-linejoin:miter;stroke:#ffffff;stroke-opacity:1;stroke-miterlimit:4;" d="M 1.5025 1.50008 L 15.611876 1.50008 " transform="matrix(0,0.75,-0.75,0,203.632873,206.084062)"/><path style="fill:none;stroke-width:3;stroke-linecap:round;stroke-linejoin:miter;stroke:#ffffff;stroke-opacity:1;stroke-miterlimit:4;" d="M 1.497589 1.50008 L 15.612173 1.50008 " transform="matrix(0,0.75,-0.75,0,207.382872,212.501808)"/><path style="fill:none;stroke-width:3;stroke-linecap:round;stroke-linejoin:miter;stroke:#ffffff;stroke-opacity:1;stroke-miterlimit:4;" d="M 1.497889 1.50008 L 15.612473 1.50008 " transform="matrix(0,0.75,-0.75,0,211.132872,218.919552)"/><path style="fill:none;stroke-width:3;stroke-linecap:round;stroke-linejoin:miter;stroke:#ffffff;stroke-opacity:1;stroke-miterlimit:4;" d="M 1.500013 1.497929 L 116.510437 1.497929 " transform="matrix(0.000000001309,0.75,-0.75,0.000000001309,214.881259,143.249991)"/><path style="fill:none;stroke-width:3;stroke-linecap:round;stroke-linejoin:miter;stroke:#ffffff;stroke-opacity:1;stroke-miterlimit:4;" d="M 1.500013 1.497929 L 116.510437 1.497929 " transform="matrix(0,0.75,-0.75,0,218.631259,143.249991)"/><path style="fill:none;stroke-width:3;stroke-linecap:round;stroke-linejoin:miter;stroke:#ffffff;stroke-opacity:1;stroke-miterlimit:4;" d="M 1.502141 1.501444 L 15.611517 1.501444 " transform="matrix(0.000000001309,0.75,-0.75,0.000000001309,166.036239,143.248395)"/><path style="fill:none;stroke-width:3;stroke-linecap:round;stroke-linejoin:miter;stroke:#ffffff;stroke-opacity:1;stroke-miterlimit:4;" d="M 1.500013 1.498411 L 116.510437 1.498411 " transform="matrix(0.000000001309,0.75,-0.75,0.000000001309,154.86209,143.249991)"/><path style="fill:none;stroke-width:3;stroke-linecap:round;stroke-linejoin:miter;stroke:#ffffff;stroke-opacity:1;stroke-miterlimit:4;" d="M 1.500013 1.497928 L 116.510437 1.497929 " transform="matrix(0.000000001309,0.75,-0.75,0.000000001309,222.381259,143.249991)"/></g></svg>