<svg xmlns="http://www.w3.org/2000/svg" xmlns:xlink="http://www.w3.org/1999/xlink" width="500" zoomAndPan="magnify" viewBox="0 0 375 374.999991" height="500" preserveAspectRatio="xMidYMid meet" version="1.2"><defs/><g id="ea9528a78f"><rect x="0" width="375" y="0" height="374.999991" style="fill:#ffffff;fill-opacity:1;stroke:none;"/><rect x="0" width="375" y="0" height="374.999991" style="fill:#000000;fill-opacity:1;stroke:none;"/><path style="fill:none;stroke-width:3;stroke-linecap:round;stroke-linejoin:miter;stroke:#ffffff;stroke-opacity:1;stroke-miterlimit:4;" d="M 1.500531 1.501243 L 118.214081 1.501243 " transform="matrix(0.000000001309,0.75,-0.75,0.000000001309,144.282182,129.07382)"/><path style="fill:none;stroke-width:3;stroke-linecap:round;stroke-linejoin:miter;stroke:#ffffff;stroke-opacity:1;stroke-miterlimit:4;" d="M 1.498416 1.499115 L 117.925507 1.499115 " transform="matrix(-0.75,-0.000000001309,0.000000001309,-0.75,232.741,218.854805)"/><path style="fill:none;stroke-width:3;stroke-linecap:round;stroke-linejoin:miter;stroke:#ffffff;stroke-opacity:1;stroke-miterlimit:4;" d="M 1.50069 1.502284 L 91.214237 1.502284 " transform="matrix(0,0.75,-0.75,0,149.782963,149.323701)"/><path style="fill:none;stroke-width:3;stroke-linecap:round;stroke-linejoin:miter;stroke:#ffffff;stroke-opacity:1;stroke-miterlimit:4;" d="M 1.50196 1.498586 L 100.653009 1.498586 " transform="matrix(0,0.75,-0.75,0,154.96769,142.244623)"/><path style="fill:none;stroke-width:3;stroke-linecap:round;stroke-linejoin:miter;stroke:#ffffff;stroke-opacity:1;stroke-miterlimit:4;" d="M 1.501083 1.502244 L 46.636503 1.502244 " transform="matrix(0,0.75,-0.75,0,160.154027,182.757)"/><path style="fill:none;stroke-width:3;stroke-linecap:round;stroke-linejoin:miter;stroke:#ffffff;stroke-opacity:1;stroke-miterlimit:4;" d="M 1.500958 1.499921 L 78.360338 1.499921 " transform="matrix(0,0.75,-0.75,0,165.34369,158.960219)"/><path style="fill:none;stroke-width:3;stroke-linecap:round;stroke-linejoin:miter;stroke:#ffffff;stroke-opacity:1;stroke-miterlimit:4;" d="M 1.501526 1.502152 L 64.22028 1.502152 " transform="matrix(0,0.75,-0.75,0,170.528957,169.565262)"/><path style="fill:none;stroke-width:3;stroke-linecap:round;stroke-linejoin:miter;stroke:#ffffff;stroke-opacity:1;stroke-miterlimit:4;" d="M 1.501055 1.500172 L 82.657311 1.500172 " transform="matrix(0,0.75,-0.75,0,175.714973,155.73749)"/><path style="fill:none;stroke-width:3;stroke-linecap:round;stroke-linejoin:miter;stroke:#ffffff;stroke-opacity:1;stroke-miterlimit:4;" d="M 1.500978 1.497822 L 53.500981 1.497822 " transform="matrix(0.000000001309,0.75,-0.75,0.000000001309,180.90071,177.604736)"/><path style="fill:none;stroke-width:3;stroke-linecap:round;stroke-linejoin:miter;stroke:#ffffff;stroke-opacity:1;stroke-miterlimit:4;" d="M 1.501645 1.499938 L 30.345397 1.499938 " transform="matrix(0,0.75,-0.75,0,186.085891,194.971422)"/><path style="fill:none;stroke-width:3;stroke-linecap:round;stroke-linejoin:miter;stroke:#ffffff;stroke-opacity:1;stroke-miterlimit:4;" d="M 1.502413 1.50193 L 38.919082 1.50193 " transform="matrix(0,0.75,-0.75,0,191.267073,188.545065)"/><path style="fill:none;stroke-width:3;stroke-linecap:round;stroke-linejoin:miter;stroke:#ffffff;stroke-opacity:1;stroke-miterlimit:4;" d="M 1.501645 1.500269 L 30.345397 1.500269 " transform="matrix(0,0.75,-0.75,0,196.457233,193.846422)"/><path style="fill:none;stroke-width:3;stroke-linecap:round;stroke-linejoin:miter;stroke:#ffffff;stroke-opacity:1;stroke-miterlimit:4;" d="M 1.501958 1.501017 L 19.626959 1.501017 " transform="matrix(0,0.75,-0.75,0,202.36795,203.010251)"/><path style="fill:none;stroke-width:3;stroke-linecap:round;stroke-linejoin:miter;stroke:#ffffff;stroke-opacity:1;stroke-miterlimit:4;" d="M 1.499601 1.497398 L 42.35377 1.497398 " transform="matrix(0.000000001309,0.75,-0.75,0.000000001309,206.826173,185.969049)"/><path style="fill:none;stroke-width:3;stroke-linecap:round;stroke-linejoin:miter;stroke:#ffffff;stroke-opacity:1;stroke-miterlimit:4;" d="M 1.50069 1.499123 L 91.214237 1.499123 " transform="matrix(0,0.75,-0.75,0,212.011061,149.323701)"/><path style="fill:none;stroke-width:3;stroke-linecap:round;stroke-linejoin:miter;stroke:#ffffff;stroke-opacity:1;stroke-miterlimit:4;" d="M 1.502429 1.500163 L 70.215975 1.500163 " transform="matrix(0,0.75,-0.75,0,217.195435,165.072397)"/><path style="fill:none;stroke-width:3;stroke-linecap:round;stroke-linejoin:miter;stroke:#ffffff;stroke-opacity:1;stroke-miterlimit:4;" d="M 1.500978 1.499187 L 53.500981 1.499187 " transform="matrix(0,0.75,-0.75,0,222.386109,177.604736)"/><path style="fill:none;stroke-width:3;stroke-linecap:round;stroke-linejoin:miter;stroke:#ffffff;stroke-opacity:1;stroke-miterlimit:4;" d="M 1.500958 1.501984 L 78.360338 1.501984 " transform="matrix(0,0.75,-0.75,0,227.571801,158.960219)"/><path style="fill:none;stroke-width:3;stroke-linecap:round;stroke-linejoin:miter;stroke:#ffffff;stroke-opacity:1;stroke-miterlimit:4;" d="M 1.500531 1.49994 L 118.214081 1.49994 " transform="matrix(0,0.75,-0.75,0,232.753861,129.07382)"/><g style="fill:#ffffff;fill-opacity:1;"><g transform="translate(139.126988, 239.329789)"><path style="stroke:none" d="M 16.609375 -16.796875 L 16.609375 0 L 15.59375 0 L 4.15625 -14.59375 L 4.15625 0 L 2.921875 0 L 2.921875 -16.796875 L 3.953125 -16.796875 L 15.390625 -2.203125 L 15.390625 -16.796875 Z M 16.609375 -16.796875 "/></g></g><g style="fill:#ffffff;fill-opacity:1;"><g transform="translate(158.663024, 239.329789)"><path style="stroke:none" d="M 7.4375 0.09375 C 6.25 0.09375 5.179688 -0.175781 4.234375 -0.71875 C 3.285156 -1.257812 2.535156 -2.015625 1.984375 -2.984375 C 1.441406 -3.953125 1.171875 -5.046875 1.171875 -6.265625 C 1.171875 -7.484375 1.441406 -8.570312 1.984375 -9.53125 C 2.535156 -10.5 3.285156 -11.253906 4.234375 -11.796875 C 5.179688 -12.347656 6.25 -12.625 7.4375 -12.625 C 8.625 -12.625 9.691406 -12.347656 10.640625 -11.796875 C 11.597656 -11.253906 12.347656 -10.5 12.890625 -9.53125 C 13.429688 -8.570312 13.703125 -7.484375 13.703125 -6.265625 C 13.703125 -5.046875 13.429688 -3.953125 12.890625 -2.984375 C 12.347656 -2.015625 11.597656 -1.257812 10.640625 -0.71875 C 9.691406 -0.175781 8.625 0.09375 7.4375 0.09375 Z M 7.4375 -0.984375 C 8.394531 -0.984375 9.253906 -1.207031 10.015625 -1.65625 C 10.773438 -2.101562 11.375 -2.726562 11.8125 -3.53125 C 12.257812 -4.332031 12.484375 -5.242188 12.484375 -6.265625 C 12.484375 -7.285156 12.257812 -8.195312 11.8125 -9 C 11.375 -9.800781 10.773438 -10.425781 10.015625 -10.875 C 9.253906 -11.320312 8.394531 -11.546875 7.4375 -11.546875 C 6.476562 -11.546875 5.617188 -11.320312 4.859375 -10.875 C 4.097656 -10.425781 3.5 -9.800781 3.0625 -9 C 2.625 -8.195312 2.40625 -7.285156 2.40625 -6.265625 C 2.40625 -5.242188 2.625 -4.332031 3.0625 -3.53125 C 3.5 -2.726562 4.097656 -2.101562 4.859375 -1.65625 C 5.617188 -1.207031 6.476562 -0.984375 7.4375 -0.984375 Z M 7.4375 -0.984375 "/></g></g><g style="fill:#ffffff;fill-opacity:1;"><g transform="translate(173.543054, 239.329789)"><path style="stroke:none" d="M 7.515625 0.09375 C 6.296875 0.09375 5.207031 -0.175781 4.25 -0.71875 C 3.289062 -1.257812 2.535156 -2.015625 1.984375 -2.984375 C 1.441406 -3.953125 1.171875 -5.046875 1.171875 -6.265625 C 1.171875 -7.492188 1.441406 -8.59375 1.984375 -9.5625 C 2.535156 -10.53125 3.289062 -11.28125 4.25 -11.8125 C 5.207031 -12.351562 6.296875 -12.625 7.515625 -12.625 C 8.523438 -12.625 9.441406 -12.425781 10.265625 -12.03125 C 11.085938 -11.644531 11.753906 -11.070312 12.265625 -10.3125 L 11.375 -9.671875 C 10.925781 -10.296875 10.367188 -10.765625 9.703125 -11.078125 C 9.046875 -11.390625 8.316406 -11.546875 7.515625 -11.546875 C 6.535156 -11.546875 5.65625 -11.320312 4.875 -10.875 C 4.101562 -10.4375 3.5 -9.816406 3.0625 -9.015625 C 2.625 -8.222656 2.40625 -7.304688 2.40625 -6.265625 C 2.40625 -5.222656 2.625 -4.300781 3.0625 -3.5 C 3.5 -2.695312 4.101562 -2.078125 4.875 -1.640625 C 5.65625 -1.203125 6.535156 -0.984375 7.515625 -0.984375 C 8.316406 -0.984375 9.046875 -1.140625 9.703125 -1.453125 C 10.367188 -1.765625 10.925781 -2.234375 11.375 -2.859375 L 12.265625 -2.203125 C 11.753906 -1.453125 11.085938 -0.878906 10.265625 -0.484375 C 9.441406 -0.0976562 8.523438 0.09375 7.515625 0.09375 Z M 7.515625 0.09375 "/></g></g><g style="fill:#ffffff;fill-opacity:1;"><g transform="translate(187.007085, 239.329789)"><path style="stroke:none" d="M 8.765625 -0.796875 C 8.453125 -0.503906 8.066406 -0.28125 7.609375 -0.125 C 7.160156 0.0195312 6.6875 0.09375 6.1875 0.09375 C 5.101562 0.09375 4.265625 -0.203125 3.671875 -0.796875 C 3.078125 -1.398438 2.78125 -2.238281 2.78125 -3.3125 L 2.78125 -11.5 L 0.484375 -11.5 L 0.484375 -12.53125 L 2.78125 -12.53125 L 2.78125 -15.265625 L 3.984375 -15.265625 L 3.984375 -12.53125 L 7.96875 -12.53125 L 7.96875 -11.5 L 3.984375 -11.5 L 3.984375 -3.4375 C 3.984375 -2.613281 4.175781 -1.988281 4.5625 -1.5625 C 4.957031 -1.144531 5.539062 -0.9375 6.3125 -0.9375 C 7.09375 -0.9375 7.738281 -1.164062 8.25 -1.625 Z M 8.765625 -0.796875 "/></g></g><g style="fill:#ffffff;fill-opacity:1;"><g transform="translate(196.559101, 239.329789)"><path style="stroke:none" d="M 13.515625 -12.53125 L 13.515625 0 L 12.359375 0 L 12.359375 -2.6875 C 11.941406 -1.8125 11.320312 -1.128906 10.5 -0.640625 C 9.6875 -0.148438 8.726562 0.09375 7.625 0.09375 C 6 0.09375 4.722656 -0.359375 3.796875 -1.265625 C 2.867188 -2.179688 2.40625 -3.492188 2.40625 -5.203125 L 2.40625 -12.53125 L 3.59375 -12.53125 L 3.59375 -5.296875 C 3.59375 -3.890625 3.953125 -2.816406 4.671875 -2.078125 C 5.398438 -1.347656 6.421875 -0.984375 7.734375 -0.984375 C 9.140625 -0.984375 10.253906 -1.421875 11.078125 -2.296875 C 11.898438 -3.179688 12.3125 -4.367188 12.3125 -5.859375 L 12.3125 -12.53125 Z M 13.515625 -12.53125 "/></g></g><g style="fill:#ffffff;fill-opacity:1;"><g transform="translate(212.615139, 239.329789)"><path style="stroke:none" d="M 3.703125 -9.796875 C 4.078125 -10.703125 4.671875 -11.398438 5.484375 -11.890625 C 6.304688 -12.378906 7.300781 -12.625 8.46875 -12.625 L 8.46875 -11.453125 L 8.1875 -11.46875 C 6.789062 -11.46875 5.703125 -11.03125 4.921875 -10.15625 C 4.140625 -9.289062 3.75 -8.082031 3.75 -6.53125 L 3.75 0 L 2.546875 0 L 2.546875 -12.53125 L 3.703125 -12.53125 Z M 3.703125 -9.796875 "/></g></g><g style="fill:#ffffff;fill-opacity:1;"><g transform="translate(221.855166, 239.329789)"><path style="stroke:none" d="M 6.765625 -12.625 C 8.316406 -12.625 9.507812 -12.226562 10.34375 -11.4375 C 11.175781 -10.644531 11.59375 -9.476562 11.59375 -7.9375 L 11.59375 0 L 10.4375 0 L 10.4375 -2.234375 C 10.039062 -1.492188 9.457031 -0.921875 8.6875 -0.515625 C 7.914062 -0.109375 6.992188 0.09375 5.921875 0.09375 C 4.535156 0.09375 3.4375 -0.234375 2.625 -0.890625 C 1.820312 -1.546875 1.421875 -2.410156 1.421875 -3.484375 C 1.421875 -4.523438 1.789062 -5.367188 2.53125 -6.015625 C 3.269531 -6.660156 4.457031 -6.984375 6.09375 -6.984375 L 10.390625 -6.984375 L 10.390625 -7.984375 C 10.390625 -9.160156 10.070312 -10.050781 9.4375 -10.65625 C 8.8125 -11.257812 7.890625 -11.5625 6.671875 -11.5625 C 5.835938 -11.5625 5.039062 -11.414062 4.28125 -11.125 C 3.519531 -10.84375 2.878906 -10.460938 2.359375 -9.984375 L 1.75 -10.84375 C 2.375 -11.40625 3.125 -11.84375 4 -12.15625 C 4.882812 -12.46875 5.804688 -12.625 6.765625 -12.625 Z M 6.09375 -0.890625 C 7.132812 -0.890625 8.019531 -1.128906 8.75 -1.609375 C 9.476562 -2.085938 10.023438 -2.785156 10.390625 -3.703125 L 10.390625 -6.046875 L 6.125 -6.046875 C 4.882812 -6.046875 3.988281 -5.820312 3.4375 -5.375 C 2.882812 -4.925781 2.609375 -4.3125 2.609375 -3.53125 C 2.609375 -2.707031 2.910156 -2.0625 3.515625 -1.59375 C 4.128906 -1.125 4.988281 -0.890625 6.09375 -0.890625 Z M 6.09375 -0.890625 "/></g></g></g></svg>