<svg xmlns="http://www.w3.org/2000/svg" xmlns:xlink="http://www.w3.org/1999/xlink" width="500" zoomAndPan="magnify" viewBox="0 0 375 374.999991" height="500" preserveAspectRatio="xMidYMid meet" version="1.2"><defs><clipPath id="64ec1a1798"><path d="M 0.601562 0.839844 L 3 0.839844 L 3 128.761719 L 0.601562 128.761719 Z M 0.601562 0.839844 "/></clipPath><clipPath id="d250c482fc"><path d="M 6 0.839844 L 9 0.839844 L 9 128.761719 L 6 128.761719 Z M 6 0.839844 "/></clipPath><clipPath id="35a179e7e5"><path d="M 114 115 L 117 115 L 117 128.761719 L 114 128.761719 Z M 114 115 "/></clipPath><clipPath id="ee9721ce25"><path d="M 120 0.839844 L 123 0.839844 L 123 128.761719 L 120 128.761719 Z M 120 0.839844 "/></clipPath><clipPath id="fbc3f75315"><path d="M 126 0.839844 L 128.28125 0.839844 L 128.28125 128.761719 L 126 128.761719 Z M 126 0.839844 "/></clipPath><clipPath id="7c4706b176"><path d="M 12 0.839844 L 15 0.839844 L 15 14 L 12 14 Z M 12 0.839844 "/></clipPath><clipPath id="77b97d6769"><rect x="0" width="129" y="0" height="129"/></clipPath></defs><g id="d59d12d19d"><rect x="0" width="375" y="0" height="374.999991" style="fill:#ffffff;fill-opacity:1;stroke:none;"/><rect x="0" width="375" y="0" height="374.999991" style="fill:#000000;fill-opacity:1;stroke:none;"/><g transform="matrix(1,0,0,1,123,123)"><g clip-path="url(#77b97d6769)"><g clip-rule="nonzero" clip-path="url(#64ec1a1798)"><path style="fill:none;stroke-width:3;stroke-linecap:round;stroke-linejoin:miter;stroke:#ffffff;stroke-opacity:1;stroke-miterlimit:4;" d="M 1.497938 1.500534 L 197.977014 1.500535 " transform="matrix(0.00000000111132,0.636737,-0.636737,0.00000000111132,2.646852,0.995426)"/></g><g clip-rule="nonzero" clip-path="url(#d250c482fc)"><path style="fill:none;stroke-width:3;stroke-linecap:round;stroke-linejoin:miter;stroke:#ffffff;stroke-opacity:1;stroke-miterlimit:4;" d="M 1.497938 1.498517 L 197.977014 1.498517 " transform="matrix(0.00000000111132,0.636737,-0.636737,0.00000000111132,8.356505,0.995426)"/></g><path style="fill:none;stroke-width:3;stroke-linecap:round;stroke-linejoin:miter;stroke:#ffffff;stroke-opacity:1;stroke-miterlimit:4;" d="M 1.500761 1.502818 L 18.199672 1.502818 " transform="matrix(0,0.636737,-0.636737,0,19.773306,6.364723)"/><path style="fill:none;stroke-width:3;stroke-linecap:round;stroke-linejoin:miter;stroke:#ffffff;stroke-opacity:1;stroke-miterlimit:4;" d="M 1.497533 1.500762 L 18.656554 1.500762 " transform="matrix(0.00000000111132,0.636737,-0.636737,0.00000000111132,25.48684,12.487872)"/><path style="fill:none;stroke-width:3;stroke-linecap:round;stroke-linejoin:miter;stroke:#ffffff;stroke-opacity:1;stroke-miterlimit:4;" d="M 1.497909 1.498768 L 18.656931 1.498768 " transform="matrix(0.00000000111132,0.636737,-0.636737,0.00000000111132,31.196508,18.905601)"/><path style="fill:none;stroke-width:3;stroke-linecap:round;stroke-linejoin:miter;stroke:#ffffff;stroke-opacity:1;stroke-miterlimit:4;" d="M 1.498263 1.502908 L 18.657284 1.502908 " transform="matrix(0.00000000111132,0.636737,-0.636737,0.00000000111132,36.906176,25.323345)"/><path style="fill:none;stroke-width:3;stroke-linecap:round;stroke-linejoin:miter;stroke:#ffffff;stroke-opacity:1;stroke-miterlimit:4;" d="M 1.498639 1.500914 L 18.65766 1.500914 " transform="matrix(0,0.636737,-0.636737,0,42.615843,31.741074)"/><path style="fill:none;stroke-width:3;stroke-linecap:round;stroke-linejoin:miter;stroke:#ffffff;stroke-opacity:1;stroke-miterlimit:4;" d="M 1.498992 1.498895 L 18.658014 1.498895 " transform="matrix(0.00000000111132,0.636737,-0.636737,0.00000000111132,48.325496,38.158817)"/><path style="fill:none;stroke-width:3;stroke-linecap:round;stroke-linejoin:miter;stroke:#ffffff;stroke-opacity:1;stroke-miterlimit:4;" d="M 1.499345 1.503038 L 18.658366 1.503038 " transform="matrix(0.00000000111132,0.636737,-0.636737,0.00000000111132,54.035165,44.576562)"/><path style="fill:none;stroke-width:3;stroke-linecap:round;stroke-linejoin:miter;stroke:#ffffff;stroke-opacity:1;stroke-miterlimit:4;" d="M 1.499721 1.50102 L 18.658743 1.50102 " transform="matrix(0.00000000111132,0.636737,-0.636737,0.00000000111132,59.744817,50.994291)"/><path style="fill:none;stroke-width:3;stroke-linecap:round;stroke-linejoin:miter;stroke:#ffffff;stroke-opacity:1;stroke-miterlimit:4;" d="M 1.500097 1.499024 L 18.659119 1.499025 " transform="matrix(0.00000000111132,0.636737,-0.636737,0.00000000111132,65.454484,57.41202)"/><path style="fill:none;stroke-width:3;stroke-linecap:round;stroke-linejoin:miter;stroke:#ffffff;stroke-opacity:1;stroke-miterlimit:4;" d="M 1.500451 1.497029 L 18.659472 1.497029 " transform="matrix(0,0.636737,-0.636737,0,71.164151,63.829764)"/><path style="fill:none;stroke-width:3;stroke-linecap:round;stroke-linejoin:miter;stroke:#ffffff;stroke-opacity:1;stroke-miterlimit:4;" d="M 1.500805 1.501172 L 18.659826 1.501172 " transform="matrix(0,0.636737,-0.636737,0,76.87382,70.247507)"/><path style="fill:none;stroke-width:3;stroke-linecap:round;stroke-linejoin:miter;stroke:#ffffff;stroke-opacity:1;stroke-miterlimit:4;" d="M 1.501181 1.499176 L 18.660202 1.499176 " transform="matrix(0,0.636737,-0.636737,0,82.583487,76.665236)"/><path style="fill:none;stroke-width:3;stroke-linecap:round;stroke-linejoin:miter;stroke:#ffffff;stroke-opacity:1;stroke-miterlimit:4;" d="M 1.501535 1.497135 L 18.660556 1.497135 " transform="matrix(0.00000000111132,0.636737,-0.636737,0.00000000111132,88.293125,83.08298)"/><path style="fill:none;stroke-width:3;stroke-linecap:round;stroke-linejoin:miter;stroke:#ffffff;stroke-opacity:1;stroke-miterlimit:4;" d="M 1.501911 1.501301 L 18.660932 1.501301 " transform="matrix(0.00000000111132,0.636737,-0.636737,0.00000000111132,94.002809,89.500709)"/><path style="fill:none;stroke-width:3;stroke-linecap:round;stroke-linejoin:miter;stroke:#ffffff;stroke-opacity:1;stroke-miterlimit:4;" d="M 1.502265 1.499283 L 18.655151 1.499283 " transform="matrix(0,0.636737,-0.636737,0,99.712461,95.918453)"/><path style="fill:none;stroke-width:3;stroke-linecap:round;stroke-linejoin:miter;stroke:#ffffff;stroke-opacity:1;stroke-miterlimit:4;" d="M 1.502641 1.497287 L 18.655527 1.497287 " transform="matrix(0,0.636737,-0.636737,0,105.422128,102.336182)"/><path style="fill:none;stroke-width:3;stroke-linecap:round;stroke-linejoin:miter;stroke:#ffffff;stroke-opacity:1;stroke-miterlimit:4;" d="M 1.503017 1.501426 L 18.655904 1.501426 " transform="matrix(0.00000000111132,0.636737,-0.636737,0.00000000111132,111.131795,108.753911)"/><g clip-rule="nonzero" clip-path="url(#35a179e7e5)"><path style="fill:none;stroke-width:3;stroke-linecap:round;stroke-linejoin:miter;stroke:#ffffff;stroke-opacity:1;stroke-miterlimit:4;" d="M 1.497236 1.499434 L 18.656257 1.499435 " transform="matrix(0.00000000111132,0.636737,-0.636737,0.00000000111132,116.841464,115.171655)"/></g><g clip-rule="nonzero" clip-path="url(#ee9721ce25)"><path style="fill:none;stroke-width:3;stroke-linecap:round;stroke-linejoin:miter;stroke:#ffffff;stroke-opacity:1;stroke-miterlimit:4;" d="M 1.497938 1.501459 L 197.977014 1.501459 " transform="matrix(0.00000000111132,0.636737,-0.636737,0.00000000111132,122.549784,0.995426)"/></g><g clip-rule="nonzero" clip-path="url(#fbc3f75315)"><path style="fill:none;stroke-width:3;stroke-linecap:round;stroke-linejoin:miter;stroke:#ffffff;stroke-opacity:1;stroke-miterlimit:4;" d="M 1.497938 1.499418 L 197.977014 1.499418 " transform="matrix(0,0.636737,-0.636737,0,128.259422,0.995426)"/></g><g clip-rule="nonzero" clip-path="url(#7c4706b176)"><path style="fill:none;stroke-width:3;stroke-linecap:round;stroke-linejoin:miter;stroke:#ffffff;stroke-opacity:1;stroke-miterlimit:4;" d="M 1.500054 1.498639 L 18.659076 1.498639 " transform="matrix(0.00000000111132,0.636737,-0.636737,0.00000000111132,14.06752,0.994079)"/></g></g></g></g></svg>