<svg xmlns="http://www.w3.org/2000/svg" xmlns:xlink="http://www.w3.org/1999/xlink" width="500" zoomAndPan="magnify" viewBox="0 0 375 374.999991" height="500" preserveAspectRatio="xMidYMid meet" version="1.2"><g id="72118fcaef"><rect x="0" width="375" y="0" height="374.999991" style="fill:#ffffff;fill-opacity:1;stroke:none;"/><rect x="0" width="375" y="0" height="374.999991" style="fill:#000000;fill-opacity:1;stroke:none;"/><path style="fill:none;stroke-width:2;stroke-linecap:round;stroke-linejoin:miter;stroke:#ffffff;stroke-opacity:1;stroke-miterlimit:4;" d="M 0.998455 0.998003 L 148.868256 0.998003 " transform="matrix(0.000000001309,0.75,-0.75,0.000000001309,132.666471,131.235534)"/><path style="fill:none;stroke-width:2;stroke-linecap:round;stroke-linejoin:miter;stroke:#ffffff;stroke-opacity:1;stroke-miterlimit:4;" d="M 0.998455 1.000658 L 148.868256 1.000658 " transform="matrix(0.000000001309,0.75,-0.75,0.000000001309,137.719243,131.235534)"/><path style="fill:none;stroke-width:2;stroke-linecap:round;stroke-linejoin:miter;stroke:#ffffff;stroke-opacity:1;stroke-miterlimit:4;" d="M 1.000755 1.002168 L 13.802839 1.002168 " transform="matrix(0,0.75,-0.75,0,147.825844,135.983809)"/><path style="fill:none;stroke-width:2;stroke-linecap:round;stroke-linejoin:miter;stroke:#ffffff;stroke-opacity:1;stroke-miterlimit:4;" d="M 1.000761 0.999985 L 14.146595 0.999985 " transform="matrix(0.000000001309,0.75,-0.75,0.000000001309,152.878895,141.40568)"/><path style="fill:none;stroke-width:2;stroke-linecap:round;stroke-linejoin:miter;stroke:#ffffff;stroke-opacity:1;stroke-miterlimit:4;" d="M 1.001159 0.997454 L 14.146994 0.997454 " transform="matrix(0.000000001309,0.75,-0.75,0.000000001309,157.931685,147.085068)"/><path style="fill:none;stroke-width:2;stroke-linecap:round;stroke-linejoin:miter;stroke:#ffffff;stroke-opacity:1;stroke-miterlimit:4;" d="M 1.001577 1.00009 L 14.147412 1.00009 " transform="matrix(0.000000001309,0.75,-0.75,0.000000001309,162.984443,152.764442)"/><path style="fill:none;stroke-width:2;stroke-linecap:round;stroke-linejoin:miter;stroke:#ffffff;stroke-opacity:1;stroke-miterlimit:4;" d="M 1.001954 0.997556 L 14.14258 0.997556 " transform="matrix(0,0.75,-0.75,0,168.037229,158.443847)"/><path style="fill:none;stroke-width:2;stroke-linecap:round;stroke-linejoin:miter;stroke:#ffffff;stroke-opacity:1;stroke-miterlimit:4;" d="M 1.002353 1.000211 L 14.142978 1.000211 " transform="matrix(0.000000001309,0.75,-0.75,0.000000001309,173.090002,164.123236)"/><path style="fill:none;stroke-width:2;stroke-linecap:round;stroke-linejoin:miter;stroke:#ffffff;stroke-opacity:1;stroke-miterlimit:4;" d="M 0.997559 0.99768 L 14.143393 0.99768 " transform="matrix(0.000000001309,0.75,-0.75,0.000000001309,178.142791,169.802612)"/><path style="fill:none;stroke-width:2;stroke-linecap:round;stroke-linejoin:miter;stroke:#ffffff;stroke-opacity:1;stroke-miterlimit:4;" d="M 0.997939 1.000335 L 14.143773 1.000335 " transform="matrix(0.000000001309,0.75,-0.75,0.000000001309,183.195564,175.482015)"/><path style="fill:none;stroke-width:2;stroke-linecap:round;stroke-linejoin:miter;stroke:#ffffff;stroke-opacity:1;stroke-miterlimit:4;" d="M 0.998337 0.997801 L 14.144172 0.997801 " transform="matrix(0.000000001309,0.75,-0.75,0.000000001309,188.248351,181.161403)"/><path style="fill:none;stroke-width:2;stroke-linecap:round;stroke-linejoin:miter;stroke:#ffffff;stroke-opacity:1;stroke-miterlimit:4;" d="M 0.998752 1.00044 L 14.144586 1.00044 " transform="matrix(0,0.75,-0.75,0,193.301111,186.84078)"/><path style="fill:none;stroke-width:2;stroke-linecap:round;stroke-linejoin:miter;stroke:#ffffff;stroke-opacity:1;stroke-miterlimit:4;" d="M 0.999151 0.997886 L 14.144985 0.997886 " transform="matrix(0,0.75,-0.75,0,198.353883,192.520168)"/><path style="fill:none;stroke-width:2;stroke-linecap:round;stroke-linejoin:miter;stroke:#ffffff;stroke-opacity:1;stroke-miterlimit:4;" d="M 0.99953 1.00058 L 14.145365 1.00058 " transform="matrix(0,0.75,-0.75,0,203.406685,198.199571)"/><path style="fill:none;stroke-width:2;stroke-linecap:round;stroke-linejoin:miter;stroke:#ffffff;stroke-opacity:1;stroke-miterlimit:4;" d="M 0.999926 0.99803 L 14.14576 0.99803 " transform="matrix(0.000000001309,0.75,-0.75,0.000000001309,208.45946,203.878962)"/><path style="fill:none;stroke-width:2;stroke-linecap:round;stroke-linejoin:miter;stroke:#ffffff;stroke-opacity:1;stroke-miterlimit:4;" d="M 1.000344 1.000685 L 14.146178 1.000685 " transform="matrix(0.000000001309,0.75,-0.75,0.000000001309,213.512232,209.558336)"/><path style="fill:none;stroke-width:2;stroke-linecap:round;stroke-linejoin:miter;stroke:#ffffff;stroke-opacity:1;stroke-miterlimit:4;" d="M 1.000724 0.998131 L 14.146558 0.998131 " transform="matrix(0,0.75,-0.75,0,218.565005,215.237739)"/><path style="fill:none;stroke-width:2;stroke-linecap:round;stroke-linejoin:miter;stroke:#ffffff;stroke-opacity:1;stroke-miterlimit:4;" d="M 1.001119 1.000805 L 14.146953 1.000805 " transform="matrix(0,0.75,-0.75,0,223.617791,220.917129)"/><path style="fill:none;stroke-width:2;stroke-linecap:round;stroke-linejoin:miter;stroke:#ffffff;stroke-opacity:1;stroke-miterlimit:4;" d="M 1.001537 0.998255 L 14.147371 0.998255 " transform="matrix(0.000000001309,0.75,-0.75,0.000000001309,228.670566,226.596504)"/><path style="fill:none;stroke-width:2;stroke-linecap:round;stroke-linejoin:miter;stroke:#ffffff;stroke-opacity:1;stroke-miterlimit:4;" d="M 1.001913 1.00091 L 14.142539 1.00091 " transform="matrix(0.000000001309,0.75,-0.75,0.000000001309,233.723339,232.275909)"/><path style="fill:none;stroke-width:2;stroke-linecap:round;stroke-linejoin:miter;stroke:#ffffff;stroke-opacity:1;stroke-miterlimit:4;" d="M 0.998455 1.001827 L 148.868256 1.001828 " transform="matrix(0.000000001309,0.75,-0.75,0.000000001309,238.774808,131.235534)"/><path style="fill:none;stroke-width:2;stroke-linecap:round;stroke-linejoin:miter;stroke:#ffffff;stroke-opacity:1;stroke-miterlimit:4;" d="M 0.998455 0.999274 L 148.868256 0.999274 " transform="matrix(0,0.75,-0.75,0,243.82758,131.235534)"/><path style="fill:none;stroke-width:2;stroke-linecap:round;stroke-linejoin:miter;stroke:#ffffff;stroke-opacity:1;stroke-miterlimit:4;" d="M 1.000212 0.999865 L 14.146046 0.999865 " transform="matrix(0.000000001309,0.75,-0.75,0.000000001309,142.773336,131.234216)"/><path style="fill:none;stroke-width:1;stroke-linecap:round;stroke-linejoin:miter;stroke:#ffffff;stroke-opacity:1;stroke-miterlimit:4;" d="M 0.501044 0.49857 L 179.290479 0.500769 " transform="matrix(0.507412,0.552298,-0.552298,0.507412,142.021123,147.083575)"/><path style="fill:none;stroke-width:1;stroke-linecap:round;stroke-linejoin:miter;stroke:#ffffff;stroke-opacity:1;stroke-miterlimit:4;" d="M 0.50025 0.502346 L 180.515032 0.501056 " transform="matrix(0.50245,0.556816,-0.556816,0.50245,142.301801,128.121392)"/><path style="fill:none;stroke-width:1;stroke-linecap:round;stroke-linejoin:miter;stroke:#ffffff;stroke-opacity:1;stroke-miterlimit:4;" d="M 0.5016 0.500147 L 133.887025 0.500147 " transform="matrix(0,0.75,-0.75,0,233.066516,128.3738)"/><path style="fill:none;stroke-width:1;stroke-linecap:round;stroke-linejoin:miter;stroke:#ffffff;stroke-opacity:1;stroke-miterlimit:4;" d="M 0.499138 0.499674 L 156.688403 0.500748 " transform="matrix(-0.00354622,0.749992,-0.749992,-0.00354622,248.329647,128.36961)"/><path style="fill:none;stroke-width:1;stroke-linecap:round;stroke-linejoin:miter;stroke:#ffffff;stroke-opacity:1;stroke-miterlimit:4;" d="M 0.501228 0.500418 L 156.68353 0.500418 " transform="matrix(0,0.75,-0.75,0,127.414376,128.374079)"/><path style="fill:none;stroke-width:1;stroke-linecap:round;stroke-linejoin:miter;stroke:#ffffff;stroke-opacity:1;stroke-miterlimit:4;" d="M 0.498032 0.499708 L 19.1022 0.499708 " transform="matrix(0.75,0.000000000000002175,-0.000000000000002175,0.75,127.044445,245.883032)"/><path style="fill:none;stroke-width:1;stroke-linecap:round;stroke-linejoin:miter;stroke:#ffffff;stroke-opacity:1;stroke-miterlimit:4;" d="M 0.500364 0.501627 L 131.062873 0.501312 " transform="matrix(0.000147783,0.75,-0.75,0.000147783,142.380053,147.58559)"/><path style="fill:none;stroke-width:1;stroke-linecap:round;stroke-linejoin:miter;stroke:#ffffff;stroke-opacity:1;stroke-miterlimit:4;" d="M 0.498032 0.497551 L 19.1022 0.497551 " transform="matrix(0.75,0.000000000000002175,-0.000000000000002175,0.75,127.044445,127.994024)"/><path style="fill:none;stroke-width:1;stroke-linecap:round;stroke-linejoin:miter;stroke:#ffffff;stroke-opacity:1;stroke-miterlimit:4;" d="M 0.498713 0.499708 L 19.102881 0.499708 " transform="matrix(0.75,0.000000000000002175,-0.000000000000002175,0.75,232.696278,246.258032)"/><path style="fill:none;stroke-width:1;stroke-linecap:round;stroke-linejoin:miter;stroke:#ffffff;stroke-opacity:1;stroke-miterlimit:4;" d="M 0.498713 0.500325 L 19.102881 0.500325 " transform="matrix(0.75,0.000000000000002175,-0.000000000000002175,0.75,232.696278,127.991944)"/></g></svg>