<svg xmlns="http://www.w3.org/2000/svg" xmlns:xlink="http://www.w3.org/1999/xlink" width="500" zoomAndPan="magnify" viewBox="0 0 375 374.999991" height="500" preserveAspectRatio="xMidYMid meet" version="1.2"><g id="9ab3d56477"><rect x="0" width="375" y="0" height="374.999991" style="fill:#ffffff;fill-opacity:1;stroke:none;"/><rect x="0" width="375" y="0" height="374.999991" style="fill:#000000;fill-opacity:1;stroke:none;"/><path style="fill:none;stroke-width:2;stroke-linecap:round;stroke-linejoin:miter;stroke:#ffffff;stroke-opacity:1;stroke-miterlimit:4;" d="M 0.997406 0.998003 L 148.867208 0.998003 " transform="matrix(0.000000001309,0.75,-0.75,0.000000001309,132.666471,131.302727)"/><path style="fill:none;stroke-width:2;stroke-linecap:round;stroke-linejoin:miter;stroke:#ffffff;stroke-opacity:1;stroke-miterlimit:4;" d="M 0.997406 1.000658 L 148.867208 1.000658 " transform="matrix(0.000000001309,0.75,-0.75,0.000000001309,137.719243,131.302727)"/><path style="fill:none;stroke-width:2;stroke-linecap:round;stroke-linejoin:miter;stroke:#ffffff;stroke-opacity:1;stroke-miterlimit:4;" d="M 0.999687 1.002148 L 13.801771 1.002148 " transform="matrix(0,0.75,-0.75,0,147.82583,136.051016)"/><path style="fill:none;stroke-width:2;stroke-linecap:round;stroke-linejoin:miter;stroke:#ffffff;stroke-opacity:1;stroke-miterlimit:4;" d="M 0.999731 0.999985 L 14.145565 0.999985 " transform="matrix(0.000000001309,0.75,-0.75,0.000000001309,152.878895,141.472858)"/><path style="fill:none;stroke-width:2;stroke-linecap:round;stroke-linejoin:miter;stroke:#ffffff;stroke-opacity:1;stroke-miterlimit:4;" d="M 1.000111 0.997435 L 14.145945 0.997435 " transform="matrix(0.000000001309,0.75,-0.75,0.000000001309,157.93167,147.152261)"/><path style="fill:none;stroke-width:2;stroke-linecap:round;stroke-linejoin:miter;stroke:#ffffff;stroke-opacity:1;stroke-miterlimit:4;" d="M 1.000529 1.00009 L 14.146363 1.00009 " transform="matrix(0.000000001309,0.75,-0.75,0.000000001309,162.984443,152.831635)"/><path style="fill:none;stroke-width:2;stroke-linecap:round;stroke-linejoin:miter;stroke:#ffffff;stroke-opacity:1;stroke-miterlimit:4;" d="M 1.000924 0.997537 L 14.146758 0.997537 " transform="matrix(0,0.75,-0.75,0,168.037215,158.511026)"/><path style="fill:none;stroke-width:2;stroke-linecap:round;stroke-linejoin:miter;stroke:#ffffff;stroke-opacity:1;stroke-miterlimit:4;" d="M 1.001304 1.000211 L 14.147138 1.000211 " transform="matrix(0.000000001309,0.75,-0.75,0.000000001309,173.090002,164.190428)"/><path style="fill:none;stroke-width:2;stroke-linecap:round;stroke-linejoin:miter;stroke:#ffffff;stroke-opacity:1;stroke-miterlimit:4;" d="M 1.001722 0.997661 L 14.147556 0.997661 " transform="matrix(0.000000001309,0.75,-0.75,0.000000001309,178.142777,169.869802)"/><path style="fill:none;stroke-width:2;stroke-linecap:round;stroke-linejoin:miter;stroke:#ffffff;stroke-opacity:1;stroke-miterlimit:4;" d="M 1.002117 1.000335 L 14.142743 1.000335 " transform="matrix(0.000000001309,0.75,-0.75,0.000000001309,183.195564,175.549193)"/><path style="fill:none;stroke-width:2;stroke-linecap:round;stroke-linejoin:miter;stroke:#ffffff;stroke-opacity:1;stroke-miterlimit:4;" d="M 1.002497 0.997782 L 14.143123 0.997782 " transform="matrix(0.000000001309,0.75,-0.75,0.000000001309,188.248336,181.228596)"/><path style="fill:none;stroke-width:2;stroke-linecap:round;stroke-linejoin:miter;stroke:#ffffff;stroke-opacity:1;stroke-miterlimit:4;" d="M 0.997707 1.00044 L 14.143541 1.00044 " transform="matrix(0,0.75,-0.75,0,193.301111,186.90797)"/><path style="fill:none;stroke-width:2;stroke-linecap:round;stroke-linejoin:miter;stroke:#ffffff;stroke-opacity:1;stroke-miterlimit:4;" d="M 0.998102 0.997886 L 14.143936 0.997886 " transform="matrix(0,0.75,-0.75,0,198.353883,192.587361)"/><path style="fill:none;stroke-width:2;stroke-linecap:round;stroke-linejoin:miter;stroke:#ffffff;stroke-opacity:1;stroke-miterlimit:4;" d="M 0.998501 1.000541 L 14.144335 1.000541 " transform="matrix(0,0.75,-0.75,0,203.406656,198.266749)"/><path style="fill:none;stroke-width:2;stroke-linecap:round;stroke-linejoin:miter;stroke:#ffffff;stroke-opacity:1;stroke-miterlimit:4;" d="M 0.998877 0.99803 L 14.144711 0.99803 " transform="matrix(0.000000001309,0.75,-0.75,0.000000001309,208.45946,203.946155)"/><path style="fill:none;stroke-width:2;stroke-linecap:round;stroke-linejoin:miter;stroke:#ffffff;stroke-opacity:1;stroke-miterlimit:4;" d="M 0.999276 1.000685 L 14.14511 1.000685 " transform="matrix(0.000000001309,0.75,-0.75,0.000000001309,213.512232,209.625543)"/><path style="fill:none;stroke-width:2;stroke-linecap:round;stroke-linejoin:miter;stroke:#ffffff;stroke-opacity:1;stroke-miterlimit:4;" d="M 0.999694 0.998131 L 14.145528 0.998131 " transform="matrix(0,0.75,-0.75,0,218.565005,215.304917)"/><path style="fill:none;stroke-width:2;stroke-linecap:round;stroke-linejoin:miter;stroke:#ffffff;stroke-opacity:1;stroke-miterlimit:4;" d="M 1.00007 1.000805 L 14.145905 1.000805 " transform="matrix(0,0.75,-0.75,0,223.617791,220.984322)"/><path style="fill:none;stroke-width:2;stroke-linecap:round;stroke-linejoin:miter;stroke:#ffffff;stroke-opacity:1;stroke-miterlimit:4;" d="M 1.000469 0.998255 L 14.146303 0.998255 " transform="matrix(0.000000001309,0.75,-0.75,0.000000001309,228.670566,226.663711)"/><path style="fill:none;stroke-width:2;stroke-linecap:round;stroke-linejoin:miter;stroke:#ffffff;stroke-opacity:1;stroke-miterlimit:4;" d="M 1.000887 1.00091 L 14.146721 1.00091 " transform="matrix(0.000000001309,0.75,-0.75,0.000000001309,233.723339,232.343085)"/><path style="fill:none;stroke-width:2;stroke-linecap:round;stroke-linejoin:miter;stroke:#ffffff;stroke-opacity:1;stroke-miterlimit:4;" d="M 0.997406 1.001827 L 148.867208 1.001828 " transform="matrix(0.000000001309,0.75,-0.75,0.000000001309,238.774808,131.302727)"/><path style="fill:none;stroke-width:2;stroke-linecap:round;stroke-linejoin:miter;stroke:#ffffff;stroke-opacity:1;stroke-miterlimit:4;" d="M 0.997406 0.999274 L 148.867208 0.999274 " transform="matrix(0,0.75,-0.75,0,243.82758,131.302727)"/><path style="fill:none;stroke-width:2;stroke-linecap:round;stroke-linejoin:miter;stroke:#ffffff;stroke-opacity:1;stroke-miterlimit:4;" d="M 0.999166 0.999865 L 14.145 0.999865 " transform="matrix(0.000000001309,0.75,-0.75,0.000000001309,142.773336,131.301407)"/></g></svg>