<svg xmlns="http://www.w3.org/2000/svg" xmlns:xlink="http://www.w3.org/1999/xlink" width="500" zoomAndPan="magnify" viewBox="0 0 375 374.999991" height="500" preserveAspectRatio="xMidYMid meet" version="1.2"><g id="215e5b2d3b"><rect x="0" width="375" y="0" height="374.999991" style="fill:#ffffff;fill-opacity:1;stroke:none;"/><rect x="0" width="375" y="0" height="374.999991" style="fill:#000000;fill-opacity:1;stroke:none;"/><path style="fill:none;stroke-width:3;stroke-linecap:round;stroke-linejoin:miter;stroke:#ffffff;stroke-opacity:1;stroke-miterlimit:4;" d="M 1.497408 1.501128 L 118.210957 1.501128 " transform="matrix(0.000000001309,0.75,-0.75,0.000000001309,143.836783,142.611319)"/><path style="fill:none;stroke-width:3;stroke-linecap:round;stroke-linejoin:miter;stroke:#ffffff;stroke-opacity:1;stroke-miterlimit:4;" d="M 1.500753 1.502219 L 117.927844 1.502219 " transform="matrix(-0.75,-0.000000001309,0.000000001309,-0.75,232.281815,232.39229)"/><path style="fill:none;stroke-width:3;stroke-linecap:round;stroke-linejoin:miter;stroke:#ffffff;stroke-opacity:1;stroke-miterlimit:4;" d="M 1.497566 1.499394 L 91.211114 1.499394 " transform="matrix(0,0.75,-0.75,0,149.405795,162.861201)"/><path style="fill:none;stroke-width:3;stroke-linecap:round;stroke-linejoin:miter;stroke:#ffffff;stroke-opacity:1;stroke-miterlimit:4;" d="M 1.498837 1.498123 L 100.655093 1.498123 " transform="matrix(0,0.75,-0.75,0,154.654842,155.782123)"/><path style="fill:none;stroke-width:3;stroke-linecap:round;stroke-linejoin:miter;stroke:#ffffff;stroke-opacity:1;stroke-miterlimit:4;" d="M 1.49796 1.499003 L 46.633379 1.499003 " transform="matrix(0,0.75,-0.75,0,159.905502,196.294499)"/><path style="fill:none;stroke-width:3;stroke-linecap:round;stroke-linejoin:miter;stroke:#ffffff;stroke-opacity:1;stroke-miterlimit:4;" d="M 1.497834 1.499125 L 78.357214 1.499125 " transform="matrix(0,0.75,-0.75,0,165.1595,172.497718)"/><path style="fill:none;stroke-width:3;stroke-linecap:round;stroke-linejoin:miter;stroke:#ffffff;stroke-opacity:1;stroke-miterlimit:4;" d="M 1.498383 1.498578 L 64.222346 1.498578 " transform="matrix(0,0.75,-0.75,0,170.409089,183.102775)"/><path style="fill:none;stroke-width:3;stroke-linecap:round;stroke-linejoin:miter;stroke:#ffffff;stroke-opacity:1;stroke-miterlimit:4;" d="M 1.497912 1.499028 L 82.654168 1.499028 " transform="matrix(0,0.75,-0.75,0,175.659427,169.275003)"/><path style="fill:none;stroke-width:3;stroke-linecap:round;stroke-linejoin:miter;stroke:#ffffff;stroke-opacity:1;stroke-miterlimit:4;" d="M 1.497854 1.499105 L 53.497857 1.499105 " transform="matrix(0.000000001309,0.75,-0.75,0.000000001309,180.909485,191.142235)"/><path style="fill:none;stroke-width:3;stroke-linecap:round;stroke-linejoin:miter;stroke:#ffffff;stroke-opacity:1;stroke-miterlimit:4;" d="M 1.498502 1.498461 L 30.347462 1.498461 " transform="matrix(0,0.75,-0.75,0,186.159002,208.508936)"/><path style="fill:none;stroke-width:3;stroke-linecap:round;stroke-linejoin:miter;stroke:#ffffff;stroke-opacity:1;stroke-miterlimit:4;" d="M 1.499309 1.497672 L 38.921186 1.497672 " transform="matrix(0,0.75,-0.75,0,191.404504,202.08255)"/><path style="fill:none;stroke-width:3;stroke-linecap:round;stroke-linejoin:miter;stroke:#ffffff;stroke-opacity:1;stroke-miterlimit:4;" d="M 1.498502 1.49846 L 30.347462 1.49846 " transform="matrix(0,0.75,-0.75,0,196.659001,207.383936)"/><path style="fill:none;stroke-width:3;stroke-linecap:round;stroke-linejoin:miter;stroke:#ffffff;stroke-opacity:1;stroke-miterlimit:4;" d="M 1.498834 1.498127 L 19.629043 1.498127 " transform="matrix(0,0.75,-0.75,0,201.908751,216.54775)"/><path style="fill:none;stroke-width:3;stroke-linecap:round;stroke-linejoin:miter;stroke:#ffffff;stroke-opacity:1;stroke-miterlimit:4;" d="M 1.501705 1.500464 L 42.350666 1.500464 " transform="matrix(0.000000001309,0.75,-0.75,0.000000001309,207.156598,199.506534)"/><path style="fill:none;stroke-width:3;stroke-linecap:round;stroke-linejoin:miter;stroke:#ffffff;stroke-opacity:1;stroke-miterlimit:4;" d="M 1.497566 1.499389 L 91.211114 1.499389 " transform="matrix(0,0.75,-0.75,0,212.405791,162.861201)"/><path style="fill:none;stroke-width:3;stroke-linecap:round;stroke-linejoin:miter;stroke:#ffffff;stroke-opacity:1;stroke-miterlimit:4;" d="M 1.499305 1.497651 L 70.21806 1.497651 " transform="matrix(0,0.75,-0.75,0,217.654488,178.609896)"/><path style="fill:none;stroke-width:3;stroke-linecap:round;stroke-linejoin:miter;stroke:#ffffff;stroke-opacity:1;stroke-miterlimit:4;" d="M 1.497854 1.49912 L 53.497857 1.49912 " transform="matrix(0,0.75,-0.75,0,222.909496,191.142235)"/><path style="fill:none;stroke-width:3;stroke-linecap:round;stroke-linejoin:miter;stroke:#ffffff;stroke-opacity:1;stroke-miterlimit:4;" d="M 1.497834 1.49912 L 78.357214 1.49912 " transform="matrix(0,0.75,-0.75,0,228.159496,172.497718)"/><path style="fill:none;stroke-width:3;stroke-linecap:round;stroke-linejoin:miter;stroke:#ffffff;stroke-opacity:1;stroke-miterlimit:4;" d="M 1.497408 1.499544 L 118.210957 1.499544 " transform="matrix(0,0.75,-0.75,0,233.405908,142.611319)"/></g></svg>